<?xml version="1.0" standalone="no"?><!DOCTYPE svg PUBLIC "-//W3C//DTD SVG 1.1//EN" "http://www.w3.org/Graphics/SVG/1.1/DTD/svg11.dtd"><svg class="icon" width="200px" height="200.00px" viewBox="0 0 1024 1024" version="1.1" xmlns="http://www.w3.org/2000/svg"><path d="M81.984 477.44C81.984 454.528 110.4 448 128 448L192 448 192 193.728C192 156.864 220.8 126.656 256 126.656L384 126.656C419.2 126.656 448 156.864 448 193.728L448 448 576 448 576 323.776C576 286.912 604.8 256.768 640 256.768L768 256.768C803.2 256.768 832 286.912 832 323.776L832 448 896 448C913.6 448 937.984 452.608 937.984 479.424 937.984 506.24 913.6 512 896 512L832 510.976 832 640C832 676.864 803.2 704.128 768 704.128L640 704.128C604.8 704.128 576 676.864 576 640L576 512 448 512 448 765.632C448 802.496 419.2 832.64 384 832.64L256 832.64C220.8 832.64 192 802.496 192 765.632L192 510.976 128 512C103.936 512 81.984 500.352 81.984 477.44Z" /></svg>