<?xml version="1.0" standalone="no"?><!DOCTYPE svg PUBLIC "-//W3C//DTD SVG 1.1//EN" "http://www.w3.org/Graphics/SVG/1.1/DTD/svg11.dtd"><svg class="icon" width="200px" height="200.00px" viewBox="0 0 1024 1024" version="1.1" xmlns="http://www.w3.org/2000/svg"><path d="M739.555556 256c0-17.066667-11.377778-28.444444-28.444445-28.444444H568.888889V85.333333c0-11.377778-11.377778-28.444444-28.444445-28.444444s-28.444444 17.066667-28.444444 28.444444V227.555556H369.777778c-17.066667 0-28.444444 11.377778-28.444445 28.444444v170.666667c0 17.066667 11.377778 28.444444 28.444445 28.444444H512v113.777778H256c-17.066667 0-28.444444 11.377778-28.444444 28.444444v170.666667c0 17.066667 11.377778 28.444444 28.444444 28.444444H512v142.222223c0 17.066667 11.377778 28.444444 28.444444 28.444444s28.444444-11.377778 28.444445-28.444444V796.444444h256c17.066667 0 28.444444-11.377778 28.444444-28.444444v-170.666667c0-17.066667-11.377778-28.444444-28.444444-28.444444H568.888889V455.111111h142.222222c17.066667 0 28.444444-11.377778 28.444445-28.444444v-170.666667z" /></svg>