<?xml version="1.0" standalone="no"?><!DOCTYPE svg PUBLIC "-//W3C//DTD SVG 1.1//EN" "http://www.w3.org/Graphics/SVG/1.1/DTD/svg11.dtd"><svg class="icon" width="48px" height="48.00px" viewBox="0 0 1024 1024" version="1.1" xmlns="http://www.w3.org/2000/svg"><path d="M959.697 399.962c0 15.473-12.535 27.98-27.98 27.98H92.284c-15.446 0-27.981-12.508-27.981-27.98 0-15.473 12.535-27.981 27.981-27.981h839.433c15.445 0 27.98 12.508 27.98 27.981zM959.697 176.113c0 15.473-12.535 27.981-27.98 27.981H92.284c-15.446 0-27.981-12.508-27.981-27.981s12.535-27.981 27.981-27.981h839.433c15.445 0 27.98 12.508 27.98 27.981zM959.697 847.887c0 15.473-12.535 27.98-27.98 27.98H92.284c-15.446 0-27.981-12.508-27.981-27.98s12.535-27.982 27.981-27.982h839.433c15.445-0.001 27.98 12.509 27.98 27.982zM959.697 624.037c0 15.473-12.535 27.98-27.98 27.98H92.284c-15.446 0-27.981-12.508-27.981-27.98s12.535-27.98 27.981-27.98h839.433c15.445 0 27.98 12.507 27.98 27.98z" /></svg>