<?xml version="1.0" standalone="no"?><!DOCTYPE svg PUBLIC "-//W3C//DTD SVG 1.1//EN" "http://www.w3.org/Graphics/SVG/1.1/DTD/svg11.dtd"><svg class="icon" width="200px" height="200.00px" viewBox="0 0 1024 1024" version="1.1" xmlns="http://www.w3.org/2000/svg"><path d="M199.111111 56.888889c17.066667 0 28.444444 11.377778 28.444445 28.444444v796.444445c0 11.377778-11.377778 28.444444-28.444445 28.444444s-28.444444-11.377778-28.444444-28.444444v-796.444445c0-17.066667 11.377778-28.444444 28.444444-28.444444zM682.666667 256c0-17.066667-11.377778-28.444444-28.444445-28.444444h-341.333333c-17.066667 0-28.444444 11.377778-28.444445 28.444444v170.666667c0 17.066667 11.377778 28.444444 28.444445 28.444444h341.333333c17.066667 0 28.444444-11.377778 28.444445-28.444444v-170.666667zM910.222222 597.333333c0-17.066667-11.377778-28.444444-28.444444-28.444444h-568.888889c-17.066667 0-28.444444 11.377778-28.444445 28.444444v170.666667c0 17.066667 11.377778 28.444444 28.444445 28.444444h568.888889c17.066667 0 28.444444-11.377778 28.444444-28.444444v-170.666667z" /></svg>