<?xml version="1.0" standalone="no"?><!DOCTYPE svg PUBLIC "-//W3C//DTD SVG 1.1//EN" "http://www.w3.org/Graphics/SVG/1.1/DTD/svg11.dtd"><svg class="icon" width="200px" height="200.00px" viewBox="0 0 1024 1024" version="1.1" xmlns="http://www.w3.org/2000/svg"><path d="M113.777778 199.111111c0-17.066667 11.377778-28.444444 28.444444-28.444444h739.555556c17.066667 0 28.444444 11.377778 28.444444 28.444444s-17.066667 28.444444-28.444444 28.444445h-739.555556c-17.066667 0-28.444444-11.377778-28.444444-28.444445zM256 284.444444c-17.066667 0-28.444444 11.377778-28.444444 28.444445v568.888889c0 17.066667 11.377778 28.444444 28.444444 28.444444h170.666667c17.066667 0 28.444444-11.377778 28.444444-28.444444v-568.888889c0-17.066667-11.377778-28.444444-28.444444-28.444445h-170.666667zM597.333333 284.444444c-17.066667 0-28.444444 11.377778-28.444444 28.444445v341.333333c0 17.066667 11.377778 28.444444 28.444444 28.444445h170.666667c17.066667 0 28.444444-11.377778 28.444444-28.444445v-341.333333c0-17.066667-11.377778-28.444444-28.444444-28.444445h-170.666667z" /></svg>