<?xml version="1.0" standalone="no"?><!DOCTYPE svg PUBLIC "-//W3C//DTD SVG 1.1//EN" "http://www.w3.org/Graphics/SVG/1.1/DTD/svg11.dtd"><svg class="icon" width="200px" height="200.00px" viewBox="0 0 1024 1024" version="1.1" xmlns="http://www.w3.org/2000/svg"><path d="M256 113.777778c-17.066667 0-28.444444 11.377778-28.444444 28.444444v568.888889c0 17.066667 11.377778 28.444444 28.444444 28.444445h170.666667c17.066667 0 28.444444-11.377778 28.444444-28.444445v-568.888889c0-17.066667-11.377778-28.444444-28.444444-28.444444h-170.666667zM597.333333 341.333333c-17.066667 0-28.444444 11.377778-28.444444 28.444445v341.333333c0 17.066667 11.377778 28.444444 28.444444 28.444445h170.666667c17.066667 0 28.444444-11.377778 28.444444-28.444445v-341.333333c0-17.066667-11.377778-28.444444-28.444444-28.444445h-170.666667zM113.777778 824.888889c0-17.066667 11.377778-28.444444 28.444444-28.444445h739.555556c17.066667 0 28.444444 11.377778 28.444444 28.444445s-11.377778 28.444444-28.444444 28.444444h-739.555556c-17.066667 0-28.444444-11.377778-28.444444-28.444444z" /></svg>