<?xml version="1.0" standalone="no"?><!DOCTYPE svg PUBLIC "-//W3C//DTD SVG 1.1//EN" "http://www.w3.org/Graphics/SVG/1.1/DTD/svg11.dtd"><svg class="icon" width="48px" height="48.00px" viewBox="0 0 1024 1024" version="1.1" xmlns="http://www.w3.org/2000/svg"><path d="M878.677333 85.333333l-149.333333 149.333334-81.365333-81.322667c-34.133333-34.133333-84.48-34.133333-118.613334 0l-106.666666 106.666667-42.666667-42.666667L320 277.333333l426.666667 426.666667 59.989333-59.989333-42.666667-42.666667 106.666667-106.666667c34.133333-34.133333 34.133333-84.522667 0-118.656L789.333333 294.613333l149.333334-149.333333L878.677333 85.333333zM273.322667 324.010667L213.333333 384l42.666667 42.666667-102.656 102.656c-34.133333 34.133333-34.133333 84.522667 0 118.656L234.666667 729.386667l-149.333334 149.333333L145.322667 938.666667l149.333333-149.333334 81.365333 81.322667c34.133333 34.133333 84.48 34.133333 118.613334 0L597.333333 768l42.666667 42.666667 59.989333-59.989334-426.666666-426.666666z" /></svg>