<?xml version="1.0" standalone="no"?><!DOCTYPE svg PUBLIC "-//W3C//DTD SVG 1.1//EN" "http://www.w3.org/Graphics/SVG/1.1/DTD/svg11.dtd"><svg class="icon" width="200px" height="200.00px" viewBox="0 0 1024 1024" version="1.1" xmlns="http://www.w3.org/2000/svg"><path d="M822.385778 113.891556l5.461333 0.113777 5.006222 56.661334-5.461333-0.113778c-311.182222 27.477333-487.253333 73.784889-518.257778 128-23.893333 41.813333 70.087111 118.727111 299.235556 215.722667 125.838222 53.191111 212.821333 100.693333 261.859555 143.36 57.457778 50.062222 69.404444 103.367111 23.722667 145.464888C824.888889 866.986667 606.549333 900.551111 228.295111 910.222222l-28.444444 0.739556-1.479111-56.888889 28.444444-0.739556c361.244444-9.272889 574.407111-42.040889 628.565333-91.989333 15.928889-14.791111 12.515556-30.264889-22.528-60.814222-43.406222-37.831111-125.895111-82.830222-246.613333-133.916445-263.850667-111.616-378.424889-205.368889-326.542222-296.277333 44.942222-78.506667 229.148444-127.032889 562.688-156.444444z"  /><path d="M796.444444 56.888889h170.666667v170.666667h-170.666667V56.888889z m56.888889 56.888889v56.888889h56.888889V113.777778h-56.888889zM56.888889 796.444444h170.666667v170.666667H56.888889v-170.666667z m56.888889 56.888889v56.888889h56.888889v-56.888889H113.777778z"  /></svg>