<?xml version="1.0" standalone="no"?><!DOCTYPE svg PUBLIC "-//W3C//DTD SVG 1.1//EN" "http://www.w3.org/Graphics/SVG/1.1/DTD/svg11.dtd"><svg class="icon" width="48px" height="48.00px" viewBox="0 0 1024 1024" version="1.1" xmlns="http://www.w3.org/2000/svg"><path d="M632.021333 85.333333c-21.333333 0-43.008 8.32-60.032 25.344l-64 64-42.666666-42.666666L405.333333 192l98.688 98.688-112.042666 110.634667 60.032 59.989333 110.677333-111.957333 111.957333 111.957333-111.957333 110.677333 59.989333 59.989334 110.677334-111.957334L832 618.666667l59.989333-59.989334-42.666666-42.666666 64-64c34.176-34.176 34.176-84.48 0-118.656L832 251.946667l106.666667-106.666667L878.677333 85.333333l-106.666666 106.666667-81.365334-81.322667C673.706667 93.653333 653.354667 85.333333 632.021333 85.333333zM187.946667 409.344L128 469.333333l42.666667 42.666667-59.989334 59.989333c-34.176 34.176-34.176 84.48 0 118.656L192 772.053333l-106.666667 106.666667L145.322667 938.666667l106.666666-106.666667 81.365334 81.322667c34.133333 34.176 84.48 34.176 118.613333 0L512 853.333333l42.666667 42.666667 59.989333-59.989333z"/></svg>