<?xml version="1.0" standalone="no"?><!DOCTYPE svg PUBLIC "-//W3C//DTD SVG 1.1//EN" "http://www.w3.org/Graphics/SVG/1.1/DTD/svg11.dtd"><svg class="icon" width="200px" height="200.00px" viewBox="0 0 1024 1024" version="1.1" xmlns="http://www.w3.org/2000/svg"><path d="M896 254.016 128 254.016C110.4 254.016 96 239.616 96 222.016 96 204.416 110.4 190.016 128 190.016L896 190.016C913.6 190.016 928 204.416 928 222.016 928 239.616 913.6 254.016 896 254.016ZM256 640C220.8 640 192 611.2 192 576L192 448C192 412.8 220.8 384 256 384L768 384C803.2 384 832 412.8 832 448L832 576C832 611.2 803.2 640 768 640L256 640ZM128 768 896 768C913.6 768 928 782.4 928 800 928 817.6 913.6 832 896 832L128 832C110.4 832 96 817.6 96 800 96 782.4 110.4 768 128 768Z" /></svg>