<?xml version="1.0" standalone="no"?><!DOCTYPE svg PUBLIC "-//W3C//DTD SVG 1.1//EN" "http://www.w3.org/Graphics/SVG/1.1/DTD/svg11.dtd"><svg class="icon" width="200px" height="200.00px" viewBox="0 0 1024 1024" version="1.1" xmlns="http://www.w3.org/2000/svg"><path d="M800 928C782.4 928 768 913.6 768 896L768 128C768 110.4 782.4 96 800 96 817.6 96 832 110.4 832 128L832 896C832 913.6 817.6 928 800 928ZM576 832 448 832C412.8 832 384 803.2 384 768L384 256C384 220.8 412.8 192 448 192L576 192C611.2 192 640 220.8 640 256L640 768C640 803.2 611.2 832 576 832ZM224 928C206.4 928 192 913.6 192 896L192 128C192 110.4 206.4 96 224 96 241.6 96 256 110.4 256 128L256 896C256 913.6 241.6 928 224 928Z" /></svg>