<?xml version="1.0" encoding="UTF-8"?>
<svg version="1.1" viewBox="0 0 48 48" xmlns="http://www.w3.org/2000/svg" xmlns:xlink="http://www.w3.org/1999/xlink">
    <!--Generated by IJSVG (https://github.com/curthard89/IJSVG)-->
    <g fill="none">
        <path d="M0,0h48v48h-48v-48Z"></path>
        <path fill="#323232" d="M30.02,21.99h-1.59l-0.55,-0.55c1.96,-2.27 3.14,-5.22 3.14,-8.45c0,-7.18 -5.82,-12.99 -13,-12.99c-7.18,0 -12.99,5.99 -13,12.99h-5.02l7.68,8l8.32,-8h-6.98c0.01,-5 4.03,-8.99 9,-8.99c4.97,0 9,4.03 9,9c0,4.97 -4.03,9 -9,9c-1.29,0 -2.52,-0.28 -3.63,-0.77l-2.96,2.96c1.93,1.14 4.18,1.81 6.59,1.81c3.23,0 6.17,-1.18 8.44,-3.13l0.54,0.54v1.58l10.01,9.98l2.98,-2.98l-9.97,-10Z" transform="translate(4, 6.01)"></path>
    </g>
</svg>