<?xml version="1.0" encoding="UTF-8"?>
<svg version="1.1" viewBox="0 0 18 18" xmlns="http://www.w3.org/2000/svg" xmlns:xlink="http://www.w3.org/1999/xlink">
    <!--Generated by IJSVG (https://github.com/curthard89/IJSVG)-->
    <g fill="#333333">
        <path d="M7.63,5.82c0.83,-0.58 1.37,-1.44 1.37,-2.32c0,-1.93 -1.57,-3.5 -3.5,-3.5h-5.5v12h6.25c1.79,0 3.25,-1.46 3.25,-3.25c0,-1.3 -0.77,-2.41 -1.87,-2.93Zm-5.13,-3.82h2.75c0.83,0 1.5,0.67 1.5,1.5c0,0.83 -0.67,1.5 -1.5,1.5h-2.75v-3Zm3.25,8h-3.25v-3h3.25c0.83,0 1.5,0.67 1.5,1.5c0,0.83 -0.67,1.5 -1.5,1.5Z" transform="translate(4, 2)"></path>
        <path fill="none" d="M0,0h18v18h-18Z"></path>
    </g>
</svg>