<?xml version="1.0" standalone="no"?><!DOCTYPE svg PUBLIC "-//W3C//DTD SVG 1.1//EN" "http://www.w3.org/Graphics/SVG/1.1/DTD/svg11.dtd"><svg class="icon" width="200px" height="137.54px" viewBox="0 0 1489 1024" version="1.1" xmlns="http://www.w3.org/2000/svg"><path d="M1039.080727 597.922909l286.999273 165.981091A715.124364 715.124364 0 0 0 1481.821091 512C1375.976727 215.691636 1064.587636 5.026909 743.796364 5.026909c-167.470545 0-331.589818 56.878545-465.268364 153.134546l240.267636 138.984727A301.986909 301.986909 0 0 1 743.796364 195.118545c168.680727 0 306.827636 142.615273 306.827636 316.881455 0 29.789091-4.002909 58.554182-11.543273 85.922909zM440.133818 465.92L135.819636 289.792A710.283636 710.283636 0 0 0 7.261091 512c104.354909 296.308364 414.254545 506.973091 736.535273 506.973091 152.017455 0 302.359273-47.383273 429.614545-128.837818l-233.378909-134.981818a299.566545 299.566545 0 0 1-196.235636 73.728c-168.773818 0-306.920727-142.615273-306.920728-316.881455 0-15.639273 1.210182-30.999273 3.258182-46.08z"  /><path d="M927.092364 529.966545c0.558545-5.957818 0.744727-11.915636 0.744727-17.966545 0-104.541091-82.850909-190.091636-184.040727-190.091636-41.518545 0-79.778909 14.336-110.685091 38.446545l293.981091 169.611636z m-103.330909 153.227637a178.734545 178.734545 0 0 1-79.965091 18.897454c-95.045818 0-173.800727-75.217455-183.202909-170.821818l263.168 151.924364zM104.820364 101.748364L1461.899636 885.294545a46.173091 46.173091 0 0 1-46.08 79.872L58.740364 181.620364a46.173091 46.173091 0 0 1 46.08-79.872z"  /></svg>