<?xml version="1.0" standalone="no"?><!DOCTYPE svg PUBLIC "-//W3C//DTD SVG 1.1//EN" "http://www.w3.org/Graphics/SVG/1.1/DTD/svg11.dtd"><svg class="icon" width="200px" height="200.00px" viewBox="0 0 1024 1024" version="1.1" xmlns="http://www.w3.org/2000/svg"><path d="M511.49824 975.238095c-4.87619 0-9.752381 0-9.752381-4.87619L38.507764 697.295238c-9.752381-4.87619-14.628571-19.504762-9.752381-34.133333 4.87619-9.752381 19.504762-14.628571 34.133333-9.752381L511.49824 926.47619l453.485714-268.190476c9.752381-4.87619 24.380952-4.87619 34.133334 9.752381 4.87619 9.752381 4.87619 24.380952-9.752381 34.133334L526.126811 975.238095H511.49824z m0-165.790476h-9.752381-4.87619L33.631573 536.380952c-9.752381-4.87619-14.628571-19.504762-9.752381-34.133333 4.87619-9.752381 19.504762-14.628571 34.133334-9.752381l453.485714 268.190476 453.485714-268.190476c9.752381-4.87619 24.380952-4.87619 34.133334 9.752381 4.87619 9.752381 4.87619 24.380952-9.752381 34.133333l-463.238096 273.066667h-4.87619-9.752381z m0-165.790476c-4.87619 0-9.752381 0-9.752381-4.876191L38.507764 365.714286c-4.87619-4.87619-9.752381-9.752381-9.752381-19.504762s4.87619-14.628571 9.752381-19.504762l463.238095-273.066667c4.87619-4.87619 14.628571-4.87619 24.380952 0l463.238096 273.066667c4.87619 4.87619 9.752381 9.752381 9.752381 19.504762s-4.87619 14.628571-9.752381 19.504762l-463.238096 273.066666c-9.752381 4.87619-9.752381 4.87619-14.628571 4.876191zM92.145859 346.209524l419.352381 248.685714 419.352381-248.685714L511.49824 97.52381 92.145859 346.209524z" /></svg>