<?xml version="1.0" standalone="no"?><!DOCTYPE svg PUBLIC "-//W3C//DTD SVG 1.1//EN" "http://www.w3.org/Graphics/SVG/1.1/DTD/svg11.dtd"><svg class="icon" width="200px" height="200.00px" viewBox="0 0 1024 1024" version="1.1" xmlns="http://www.w3.org/2000/svg"><path d="M640.512 448.512c35.328 0 64-28.672 64-64s-28.672-64-64-64-64 28.672-64 64 28.672 64 64 64zM385.024 448.512c35.328 0 64-28.672 64-64s-28.672-64-64-64-64 28.672-64 64 28.672 64 64 64z"  /><path d="M832 129.024h-190.976V65.024c0-35.328-28.672-64-64-64h-128c-35.328 0-64 28.672-64 64v64H193.024c-35.328 0-64 28.672-64 64v443.904c0 35.328 28.672 67.072 64 67.072h192V768H194.56c-35.328 0-64 28.672-64 64v128c0 35.328 28.672 64 64 64h636.416c35.328 0 64-28.672 64-64v-128c0-35.328-28.672-64-64-64h-189.44v-64h190.976c35.328 0 64-31.744 64-67.072V193.024c-0.512-35.328-29.184-64-64.512-64zM449.024 65.536c0-0.512 0-0.512 0 0h128.512v64H449.024V65.536z m381.952 765.952v128H194.56v-128h190.464c35.328 0 64-28.672 64-64v-64h128.512v64c0 35.328 28.672 64 64 64h189.44z m1.024-638.464V640H193.536V193.024h638.464zM33.28 321.024c-17.408 0-31.744 14.336-31.744 31.744v128c0 17.408 14.336 31.744 31.744 31.744 17.92 0 31.744-14.336 31.744-31.744v-128c0.512-17.408-13.824-31.744-31.744-31.744zM991.744 321.024c-17.408 0-31.744 14.336-31.744 31.744v128c0 17.408 14.336 31.744 31.744 31.744 17.92 0 31.744-14.336 31.744-31.744v-128c0-17.408-14.336-31.744-31.744-31.744z"  /></svg>