<?xml version="1.0" standalone="no"?><!DOCTYPE svg PUBLIC "-//W3C//DTD SVG 1.1//EN" "http://www.w3.org/Graphics/SVG/1.1/DTD/svg11.dtd"><svg class="icon" width="200px" height="200.00px" viewBox="0 0 1000 1000" version="1.1" xmlns="http://www.w3.org/2000/svg"><path d="M266.7801 411.7169c84.6821 0 153.5682-68.8733 153.5682-153.5619 0-84.6916-68.8861-153.5649-153.5682-153.5649-84.6831 0-153.5792 68.8743-153.5792 153.5649C113.2009 342.8426 182.097 411.7169 266.7801 411.7169zM915.7227 837.5192 692.8467 302.1042c-2.6443-6.3847-8.6115-10.6937-15.4631-11.2214-7.0355-0.6116-13.4175 2.8461-17.0072 8.6981l-258.3135 422.6335-77.2008-125.8767c-3.2329-5.2854-8.9253-8.5802-15.1154-8.7001-6.232 0.4067-12.0463 2.8471-15.5341 7.9476l-162.9392 238.6382c-3.8316 5.6112-4.2273 12.8483-1.0573 18.8632 3.171 5.94 9.382 9.6794 16.1307 9.6794h752.5826048806911c6.0791 0 11.7625-3.0509 15.1254-8.1325C917.4296 849.553 918.0502 843.1294 915.7227 837.5192z" /></svg>