<?xml version="1.0" standalone="no"?><!DOCTYPE svg PUBLIC "-//W3C//DTD SVG 1.1//EN" "http://www.w3.org/Graphics/SVG/1.1/DTD/svg11.dtd"><svg class="icon" width="200px" height="200.00px" viewBox="0 0 1024 1024" version="1.1" xmlns="http://www.w3.org/2000/svg"><path fill="#AEB0B2" d="M181.169231 1016.123077c-15.753846 0-23.630769-7.876923-39.384616-15.753846-15.753846-15.753846-23.630769-31.507692-23.630769-47.261539V102.4c0-15.753846 7.876923-31.507692 15.753846-47.261538 7.876923-7.876923 23.630769-15.753846 39.384616-15.753847 7.876923 0 23.630769 0 31.507692 7.876923l716.8 448.984616c31.507692 15.753846 39.384615 55.138462 23.630769 86.646154-7.876923 15.753846-23.630769 31.507692-47.261538 31.507692l-393.846154 31.507692c-15.753846 0-31.507692 7.876923-39.384615 23.63077l-244.184616 322.953846c-7.876923 15.753846-23.630769 23.630769-39.384615 23.630769zM196.923077 141.784615v764.061539l212.676923-283.569231c23.630769-31.507692 63.015385-55.138462 102.4-55.138461l338.707692-31.507693-653.784615-393.846154z" /></svg>