<?xml version="1.0" standalone="no"?><!DOCTYPE svg PUBLIC "-//W3C//DTD SVG 1.1//EN" "http://www.w3.org/Graphics/SVG/1.1/DTD/svg11.dtd"><svg class="icon" width="200px" height="200.00px" viewBox="0 0 1024 1024" version="1.1" xmlns="http://www.w3.org/2000/svg"><path d="M176.355556 56.888889C147.911111 56.888889 113.777778 91.022222 113.777778 119.466667v130.844444c0 34.133333 28.444444 56.888889 56.888889 56.888889s56.888889-28.444444 56.888889-56.888889V187.733333h210.488888V853.333333H341.333333c-34.133333 0-56.888889 28.444444-56.888889 56.888889 0 34.133333 28.444444 56.888889 56.888889 56.888889h324.266667c34.133333 0 56.888889-28.444444 56.888889-56.888889 0-34.133333-28.444444-56.888889-56.888889-56.888889H568.888889V187.733333h199.111111v62.577778c0 34.133333 28.444444 56.888889 56.888889 56.888889 34.133333 0 56.888889-28.444444 56.888889-56.888889V119.466667c5.688889-28.444444-28.444444-62.577778-56.888889-62.577778H176.355556z" /></svg>