<?xml version="1.0" encoding="UTF-8"?>
<svg width="64" height="64" version="1.1" viewBox="0 0 24 24" xmlns="http://www.w3.org/2000/svg" xmlns:xlink="http://www.w3.org/1999/xlink">
    <!--Generated by IJSVG (https://github.com/curthard89/IJSVG)-->
    <g fill="none">
        <path d="M0,0h24v24h-24Z"></path>
        <path fill="#333333" d="M8,16c1.1,0 2,-0.9 2,-2c0,-1.1 -0.9,-2 -2,-2c-1.1,0 -2,0.9 -2,2c0,1.1 0.9,2 2,2Zm6,-9h-1v-2c0,-2.76 -2.24,-5 -5,-5c-2.76,0 -5,2.24 -5,5h1.9c0,-1.71 1.39,-3.1 3.1,-3.1c1.71,0 3.1,1.39 3.1,3.1v2h-9.1c-1.1,0 -2,0.9 -2,2v10c0,1.1 0.9,2 2,2h12c1.1,0 2,-0.9 2,-2v-10c0,-1.1 -0.9,-2 -2,-2Zm0,12h-12v-10h12v10Z" transform="translate(4, 1)"></path>
    </g>
</svg>