<?xml version="1.0" encoding="UTF-8"?>
<svg version="1.1" viewBox="0 0 24 24" xmlns="http://www.w3.org/2000/svg" xmlns:xlink="http://www.w3.org/1999/xlink">
    <!--Generated by IJSVG (https://github.com/curthard89/IJSVG)-->
    <defs>
        <mask id="mask-1" maskContentUnits="userSpaceOnUse" maskUnits="objectBoundingBox">
            <g fill="#FFFFFF" transform="translate(-3, -3)">
                <use xlink:href="#path-1"></use>
            </g>
        </mask>
        <mask id="mask-2" maskContentUnits="userSpaceOnUse" maskUnits="objectBoundingBox">
            <use fill="#FFFFFF" xlink:href="#path-1"></use>
        </mask>
        <path id="path-1" d="M0,0h24v24h-24Z"></path>
    </defs>
    <g fill="#323232">
        <path mask="url(#mask-1)" d="M12,0l2.3,2.3l-2.89,2.87l1.42,1.42l2.87,-2.89l2.3,2.3v-6Zm-12,6l2.3,-2.3l2.87,2.89l1.42,-1.42l-2.89,-2.87l2.3,-2.3h-6Zm6,12l-2.3,-2.3l2.89,-2.87l-1.42,-1.42l-2.87,2.89l-2.3,-2.3v6Zm12,-6l-2.3,2.3l-2.87,-2.89l-1.42,1.42l2.89,2.87l-2.3,2.3h6Z" transform="translate(3, 3)"></path>
        <use mask="url(#mask-2)" fill="none" xlink:href="#path-1"></use>
    </g>
</svg>